<?xml version="1.0" encoding="utf-8"?>
<!-- Generator: Adobe Illustrator 25.2.0, SVG Export Plug-In . SVG Version: 6.00 Build 0)  -->
<svg version="1.1" id="Layer_1" xmlns="http://www.w3.org/2000/svg" xmlns:xlink="http://www.w3.org/1999/xlink" x="0px" y="0px"
	 viewBox="0 0 482.5 61.4" style="enable-background:new 0 0 482.5 61.4;" xml:space="preserve">
<style type="text/css">
	.st0{fill:#010101;}
</style>
<g>
	<g>
		<g>
			<g>
				<g>
					<path class="st0" d="M325.7,61.4V46.8h1.5V60h8.1v1.3H325.7z"/>
					<path class="st0" d="M344.9,61.4V46.8h1.5v14.6H344.9z"/>
					<path class="st0" d="M358.1,61.4V46.8h1.3l6.6,11.4h-0.7l6.6-11.4h1.3v14.6h-1.5V49.1h0.4l-6,10.4h-0.7l-6.1-10.4h0.4v12.3
						H358.1z"/>
					<path class="st0" d="M384.8,61.4V46.8h1.5v14.6H384.8z"/>
					<path class="st0" d="M400.8,61.4V48.1h-5.1v-1.3h11.7v1.3h-5.1v13.3H400.8z"/>
					<path class="st0" d="M418.4,60h8.7v1.3h-10.2V46.8h9.9v1.3h-8.4V60z M418.2,53.3h7.7v1.3h-7.7V53.3z"/>
					<path class="st0" d="M437.7,61.4V46.8h5.9c1.5,0,2.9,0.3,4.1,0.9c1.2,0.6,2.1,1.5,2.7,2.6c0.6,1.1,1,2.4,1,3.8s-0.3,2.7-1,3.8
						c-0.6,1.1-1.6,2-2.7,2.6c-1.2,0.6-2.5,0.9-4.1,0.9H437.7z M439.2,60h4.3c1.3,0,2.4-0.3,3.3-0.8c0.9-0.5,1.7-1.2,2.2-2.1
						s0.8-1.9,0.8-3.1c0-1.2-0.3-2.2-0.8-3.1c-0.5-0.9-1.3-1.6-2.2-2.1c-0.9-0.5-2.1-0.8-3.3-0.8h-4.3V60z"/>
				</g>
			</g>
			<g>
				<path class="st0" d="M139.1,61.4V46.8h5.4c1.2,0,2.3,0.2,3.2,0.6c0.9,0.4,1.6,1,2,1.7s0.7,1.6,0.7,2.7c0,1-0.2,1.9-0.7,2.7
					c-0.5,0.7-1.2,1.3-2,1.7c-0.9,0.4-1.9,0.6-3.2,0.6h-4.6l0.7-0.7v5.3H139.1z M140.6,56.2l-0.7-0.8h4.5c1.4,0,2.5-0.3,3.3-1
					c0.8-0.6,1.1-1.5,1.1-2.7c0-1.2-0.4-2.1-1.1-2.7c-0.8-0.6-1.9-1-3.3-1h-4.5l0.7-0.7V56.2z"/>
				<path class="st0" d="M163.4,61.4V46.8h5.4c1.2,0,2.3,0.2,3.2,0.6c0.9,0.4,1.6,1,2,1.7c0.5,0.7,0.7,1.6,0.7,2.7
					c0,1-0.2,1.9-0.7,2.7c-0.5,0.7-1.2,1.3-2,1.7c-0.9,0.4-1.9,0.6-3.2,0.6h-4.6l0.7-0.7v5.3H163.4z M164.9,56.2l-0.7-0.7h4.5
					c1.4,0,2.5-0.3,3.3-1c0.8-0.6,1.1-1.5,1.1-2.7c0-1.2-0.4-2.1-1.1-2.7c-0.8-0.6-1.9-1-3.3-1h-4.5l0.7-0.7V56.2z M173.3,61.4
					l-3.7-5.3h1.7l3.7,5.3H173.3z"/>
				<path class="st0" d="M188,61.4V46.8h1.5v14.6H188z"/>
				<path class="st0" d="M207.8,61.4l-6.4-14.6h1.7l6,13.8h-0.9l6-13.8h1.6l-6.4,14.6H207.8z"/>
				<path class="st0" d="M224.7,61.4l6.6-14.6h1.5l6.6,14.6h-1.6l-6.1-13.7h0.6l-6.1,13.7H224.7z M227.3,57.5l0.5-1.3h8.4l0.5,1.3
					H227.3z"/>
				<path class="st0" d="M253.6,61.4V48.1h-5.1v-1.3h11.7v1.3h-5.1v13.3H253.6z"/>
				<path class="st0" d="M273.9,60h8.7v1.3h-10.2V46.8h9.9v1.3h-8.4V60z M273.7,53.3h7.7v1.3h-7.7V53.3z"/>
			</g>
		</g>
		<g>
			<path class="st0" d="M131.6,6.5H94.4V0h37.2V6.5z M131.6,30.7H94.4V12.1h37.2v6.5h-30.7v5.6h30.7V30.7z"/>
			<path class="st0" d="M177.3,22.4c0,1.1-0.2,2.2-0.7,3.2c-0.4,1-1,1.9-1.8,2.6c-0.8,0.8-1.7,1.3-2.7,1.8c-1,0.4-2.1,0.7-3.2,0.7
				h-30.1V12.1H169c0.2,0,0.5,0,0.7-0.1c0.2-0.1,0.4-0.2,0.6-0.4c0.2-0.2,0.3-0.4,0.4-0.6c0.1-0.2,0.1-0.5,0.1-0.7v-2
				c0-0.2,0-0.5-0.1-0.7c-0.1-0.2-0.2-0.4-0.4-0.6c-0.2-0.2-0.4-0.3-0.6-0.4c-0.2-0.1-0.5-0.1-0.7-0.1h-30.1V0H169
				c1.1,0,2.2,0.2,3.2,0.7c1,0.4,1.9,1,2.7,1.8c0.7,0.8,1.3,1.7,1.8,2.7c0.4,1,0.7,2.1,0.7,3.2v2c0,1-0.2,1.9-0.5,2.7
				c-0.3,0.8-0.7,1.6-1.3,2.3c0.5,0.7,1,1.5,1.3,2.3c0.3,0.9,0.5,1.8,0.5,2.7V22.4z M170.8,20.4c0-0.2,0-0.5-0.1-0.7
				c-0.1-0.2-0.2-0.4-0.4-0.6c-0.2-0.2-0.4-0.3-0.6-0.4c-0.2-0.1-0.5-0.1-0.7-0.1h-23.6v5.6H169c0.2,0,0.5,0,0.7-0.1
				c0.2-0.1,0.4-0.2,0.6-0.4c0.2-0.2,0.3-0.4,0.4-0.6c0.1-0.2,0.1-0.5,0.1-0.7V20.4z"/>
			<path class="st0" d="M222.9,30.7h-6.5V18.6H191v12.1h-6.5V8.1c0-1.1,0.2-2.2,0.6-3.2c0.4-1,1-1.8,1.7-2.6
				c0.7-0.7,1.6-1.3,2.6-1.8c1-0.4,2-0.6,3.2-0.6h22.1c1.1,0,2.2,0.2,3.2,0.6c1,0.4,1.8,1,2.6,1.8c0.7,0.7,1.3,1.6,1.8,2.6
				c0.4,1,0.6,2.1,0.6,3.2V30.7z M216.4,12.1v-4c0-0.5-0.2-0.8-0.5-1.2c-0.3-0.3-0.7-0.5-1.2-0.5h-22.1c-0.4,0-0.8,0.2-1.1,0.5
				c-0.3,0.3-0.5,0.7-0.5,1.2v4H216.4z"/>
			<path class="st0" d="M268.6,30.7h-6.5V8.3c0-0.2,0-0.5-0.1-0.7c-0.1-0.2-0.2-0.4-0.4-0.6c-0.2-0.2-0.4-0.3-0.6-0.4
				c-0.2-0.1-0.5-0.1-0.7-0.1h-30.1V0h30.1c1.1,0,2.2,0.2,3.2,0.7c1,0.4,1.9,1,2.7,1.8c0.7,0.8,1.3,1.7,1.8,2.7
				c0.4,1,0.7,2.1,0.7,3.2V30.7z M236.7,30.7h-6.5V12.1h6.5V30.7z"/>
			<path class="st0" d="M282.4,30.7h-6.5V0h6.5V30.7z"/>
			<path class="st0" d="M348.1,6.5h-38.3V0h38.3V6.5z M332.2,30.7h-6.5V12.1h6.5V30.7z"/>
			<path class="st0" d="M392.6,6.5h-37.2V0h37.2V6.5z M392.6,30.7h-37.2V12.1h37.2v6.5h-30.7v5.6h30.7V30.7z"/>
			<path class="st0" d="M436.8,30.7h-28.9c-1.1,0-2.1-0.2-3.1-0.6c-1-0.4-1.8-1-2.6-1.7c-0.7-0.7-1.3-1.6-1.7-2.6
				c-0.4-1-0.6-2-0.6-3.1V8.1c0-1.1,0.2-2.1,0.6-3.1c0.4-1,1-1.8,1.7-2.6c0.7-0.7,1.6-1.3,2.6-1.7c1-0.4,2-0.6,3.1-0.6h28.9v6.5
				h-28.9c-0.4,0-0.8,0.1-1.1,0.5c-0.3,0.3-0.5,0.7-0.5,1.1v14.6c0,0.4,0.1,0.8,0.5,1.1c0.3,0.3,0.7,0.5,1.1,0.5h28.9V30.7z"/>
			<path class="st0" d="M482.4,30.7h-6.5V18.6h-25.4v12.1h-6.5V12.1h31.9V0h6.5V30.7z M450.6,6.5h-6.5V0h6.5V6.5z"/>
		</g>
	</g>
	<g>
		<g>
			<g>
				<rect x="0.2" y="1.5" class="st0" width="43.3" height="6.5"/>
				<polygon class="st0" points="0.8,19.1 0,19.1 0,47.2 0.2,47.2 0.2,47.3 28.2,47.3 28.2,40.7 6.6,40.7 6.6,25.6 28.9,25.6 
					28.9,19 0.8,19 				"/>
				<polygon class="st0" points="71.4,19 44.4,19 43.2,19 38.6,19 38.6,60.2 44.4,60.2 44.4,25.6 71.4,25.6 				"/>
			</g>
		</g>
	</g>
</g>
</svg>
